<?xml version="1.0" encoding="utf-8"?>
<!-- Generator: Adobe Illustrator 24.1.3, SVG Export Plug-In . SVG Version: 6.00 Build 0)  -->
<svg version="1.1" id="Layer_1" xmlns="http://www.w3.org/2000/svg" xmlns:xlink="http://www.w3.org/1999/xlink" x="0px" y="0px"
	 viewBox="0 0 392.2 172.7" style="enable-background:new 0 0 392.2 172.7;" xml:space="preserve">
<style type="text/css">
	.st0{fill:none;stroke:#000000;stroke-width:0.25;stroke-miterlimit:10;}
	.st1{fill:none;stroke:#000000;stroke-width:0.2493;stroke-miterlimit:9.9725;}
	.st2{fill:#020202;}
	.st3{font-family:'ArialMT';}
	.st4{font-size:1.61px;}
	.st5{font-size:2.41px;}
	.st6{font-size:3.22px;}
	.st7{font-size:4.02px;}
	.st8{font-size:6.44px;}
	.st9{font-size:4.83px;}
</style>
<ellipse transform="matrix(0.9616 -0.2743 0.2743 0.9616 -13.7572 20.8997)" class="st0" cx="67.9" cy="59.6" rx="20.7" ry="45.9"/>
<ellipse transform="matrix(0.9616 -0.2743 0.2743 0.9616 -14.6684 26.308)" class="st0" cx="86.7" cy="65.6" rx="20.7" ry="45.9"/>
<ellipse transform="matrix(0.9616 -0.2743 0.2743 0.9616 -14.8701 31.5075)" class="st0" cx="105.2" cy="68.9" rx="20.7" ry="45.9"/>
<ellipse transform="matrix(0.9616 -0.2743 0.2743 0.9616 -17.3549 36.543)" class="st0" cx="122" cy="80.3" rx="20.7" ry="45.9"/>
<ellipse transform="matrix(0.9616 -0.2743 0.2743 0.9616 -21.1292 40.1599)" class="st0" cx="133" cy="95.6" rx="20.7" ry="45.9"/>
<ellipse transform="matrix(0.9616 -0.2743 0.2743 0.9616 -18.3782 44.6576)" class="st0" cx="150.5" cy="88" rx="20.7" ry="45.9"/>
<ellipse transform="matrix(0.9616 -0.2743 0.2743 0.9616 -14.7228 47.5906)" class="st0" cx="162.8" cy="76.4" rx="20.7" ry="45.9"/>
<ellipse transform="matrix(0.9616 -0.2743 0.2743 0.9616 -19.8011 48.0596)" class="st0" cx="162" cy="94.8" rx="20.7" ry="45.9"/>
<ellipse transform="matrix(0.9616 -0.2743 0.2743 0.9616 -23.8462 50.2825)" class="st0" cx="167.9" cy="110.4" rx="20.7" ry="45.9"/>
<ellipse transform="matrix(0.9616 -0.2743 0.2743 0.9616 -23.6762 50.941)" class="st0" cx="170.3" cy="110.1" rx="20.7" ry="45.9"/>
<ellipse transform="matrix(0.9616 -0.2743 0.2743 0.9616 -23.0221 52.2328)" class="st0" cx="175.3" cy="108.4" rx="20.7" ry="45.9"/>
<ellipse transform="matrix(0.9627 -0.2707 0.2707 0.9627 -22.0123 53.123)" class="st1" cx="181.5" cy="106.3" rx="20.6" ry="45.8"/>
<ellipse transform="matrix(0.9616 -0.2743 0.2743 0.9616 -20.7617 56.3097)" class="st0" cx="191" cy="102.4" rx="20.7" ry="45.9"/>
<ellipse transform="matrix(0.9616 -0.2743 0.2743 0.9616 -19.3986 58.8785)" class="st0" cx="200.8" cy="98.8" rx="20.7" ry="45.9"/>
<ellipse transform="matrix(0.9616 -0.2743 0.2743 0.9616 -18.0478 61.6654)" class="st0" cx="211.5" cy="95.4" rx="20.7" ry="45.9"/>
<ellipse transform="matrix(0.9616 -0.2743 0.2743 0.9616 -16.8319 64.5561)" class="st0" cx="222.4" cy="92.5" rx="20.7" ry="45.9"/>
<ellipse transform="matrix(0.9616 -0.2743 0.2743 0.9616 -15.8774 67.4526)" class="st0" cx="233.3" cy="90.5" rx="20.7" ry="45.9"/>
<ellipse transform="matrix(0.9616 -0.2743 0.2743 0.9616 -15.3036 70.2465)" class="st0" cx="243.5" cy="89.8" rx="20.7" ry="45.9"/>
<ellipse transform="matrix(0.9616 -0.2743 0.2743 0.9616 -15.234 72.8326)" class="st0" cx="252.8" cy="90.9" rx="20.7" ry="45.9"/>
<ellipse transform="matrix(0.9616 -0.2743 0.2743 0.9616 -15.8 75.1024)" class="st0" cx="260.7" cy="94" rx="20.7" ry="45.9"/>
<ellipse transform="matrix(0.9616 -0.2743 0.2743 0.9616 -17.1167 76.9583)" class="st0" cx="266.6" cy="99.7" rx="20.7" ry="45.9"/>
<ellipse transform="matrix(0.9627 -0.2707 0.2707 0.9627 -17.6317 76.2051)" class="st1" cx="267.4" cy="102" rx="20.6" ry="45.8"/>
<ellipse transform="matrix(0.9616 -0.2743 0.2743 0.9616 -17.2194 77.9188)" class="st0" cx="270" cy="100.5" rx="20.7" ry="45.9"/>
<ellipse transform="matrix(0.9616 -0.2743 0.2743 0.9616 -7.5673 87.0277)" class="st0" cx="307.4" cy="70.6" rx="20.7" ry="45.9"/>
<ellipse transform="matrix(0.9616 -0.2743 0.2743 0.9616 -16.6065 78.3744)" class="st0" cx="271.9" cy="98.6" rx="20.7" ry="45.9"/>
<ellipse transform="matrix(0.9627 -0.2707 0.2707 0.9627 -15.9162 77.5998)" class="st1" cx="273.3" cy="96.5" rx="20.6" ry="45.8"/>
<ellipse transform="matrix(0.9627 -0.2707 0.2707 0.9627 -14.7645 78.1751)" class="st1" cx="276" cy="92.6" rx="20.6" ry="45.8"/>
<ellipse transform="matrix(0.9616 -0.2743 0.2743 0.9616 -13.1796 80.1424)" class="st0" cx="280" cy="87.2" rx="20.7" ry="45.9"/>
<ellipse transform="matrix(0.9616 -0.2743 0.2743 0.9616 -11.8087 81.0102)" class="st0" cx="283.8" cy="82.7" rx="20.7" ry="45.9"/>
<ellipse transform="matrix(0.9616 -0.2743 0.2743 0.9616 -10.4719 82.0911)" class="st0" cx="288.3" cy="78.5" rx="20.7" ry="45.9"/>
<ellipse transform="matrix(0.9616 -0.2743 0.2743 0.9616 -9.2604 83.4254)" class="st0" cx="293.7" cy="74.8" rx="20.7" ry="45.9"/>
<ellipse transform="matrix(0.9616 -0.2743 0.2743 0.9616 -8.2604 85.0558)" class="st0" cx="300" cy="72.1" rx="20.7" ry="45.9"/>
<ellipse transform="matrix(0.9616 -0.2743 0.2743 0.9616 -7.2619 89.3833)" class="st0" cx="316" cy="70.7" rx="20.7" ry="45.9"/>
<ellipse transform="matrix(0.9616 -0.2743 0.2743 0.9616 -7.444 92.1611)" class="st0" cx="325.8" cy="72.7" rx="20.7" ry="45.9"/>
<ellipse transform="matrix(0.9616 -0.2743 0.2743 0.9616 -8.2005 95.4121)" class="st0" cx="337.1" cy="77" rx="20.7" ry="45.9"/>
<text transform="matrix(1 0 0 1 139.95 97.39)" class="st2 st3 st4">ANTICAPI</text>
<text transform="matrix(1 0 0 1 147.69 97.39)" class="st2 st3 st4">T</text>
<text transform="matrix(1 0 0 1 148.6 97.39)" class="st2 st3 st4">ALISTS</text>
<text transform="matrix(1 0 0 1 154.74 82)" class="st2 st3 st5">EXTROVE</text>
<text transform="matrix(1 0 0 1 166.7 82)" class="st2 st3 st5">R</text>
<text transform="matrix(1 0 0 1 168.45 82)" class="st2 st3 st5">TS</text>
<text transform="matrix(1 0 0 1 69.62 99.64)" class="st2 st3 st5">POETS</text>
<text transform="matrix(1 0 0 1 213.58 122.46)" class="st2 st3 st4">THIS COULD </text>
<text transform="matrix(1 0 0 1 215.75 124.39)" class="st2 st3 st4">BE</text>
<text transform="matrix(1 0 0 1 217.98 124.39)" class="st2 st3 st4"> </text>
<text transform="matrix(1 0 0 1 218.44 124.39)" class="st2 st3 st4">YOU</text>
<text transform="matrix(1 0 0 1 188.82 99.24)" class="st2 st3 st4">THIS COULD</text>
<text transform="matrix(1 0 0 1 191.24 101.17)" class="st2 st3 st4">NE ME</text>
<text transform="matrix(1 0 0 1 199.6 131.96)" class="st2 st3 st4">EVE</text>
<text transform="matrix(1 0 0 1 202.94 131.96)" class="st2 st3 st4">R</text>
<text transform="matrix(1 0 0 1 204.11 131.96)" class="st2 st3 st4">YTHING</text>
<text transform="matrix(1 0 0 1 199.81 133.89)" class="st2 st3 st4">IN BETWEEN</text>
<text transform="matrix(1 0 0 1 172.04 125.5)" class="st2 st3 st4">GOD KNOWS</text>
<text transform="matrix(1 0 0 1 186.53 128.73)" class="st2 st3 st4">WH</text>
<text transform="matrix(1 0 0 1 189.29 128.73)" class="st2 st3 st4">A</text>
<text transform="matrix(1 0 0 1 190.28 128.73)" class="st2 st3 st4">TEVER</text>
<text transform="matrix(1 0 0 1 173.92 137.7)" class="st2 st3 st4">BE WH</text>
<text transform="matrix(1 0 0 1 179.39 137.7)" class="st2 st3 st4">A</text>
<text transform="matrix(1 0 0 1 180.39 137.7)" class="st2 st3 st4">T </text>
<text transform="matrix(1 0 0 1 181.84 137.7)" class="st2 st3 st4">YOU LIKE</text>
<text transform="matrix(1 0 0 1 201.2 120.74)" class="st2 st3 st4">TIN</text>
<text transform="matrix(1 0 0 1 203.91 120.74)" class="st2 st3 st4">Y</text>
<text transform="matrix(1 0 0 1 200.98 122.67)" class="st2 st3 st4">TEX</text>
<text transform="matrix(1 0 0 1 204.23 122.67)" class="st2 st3 st4">T</text>
<text transform="matrix(1 0 0 1 49.95 56.83)" class="st2 st3 st4">BE</text>
<text transform="matrix(1 0 0 1 52.18 56.83)" class="st2 st3 st4">A</text>
<text transform="matrix(1 0 0 1 53.17 56.83)" class="st2 st3 st4">TBOXERS</text>
<text transform="matrix(1 0 0 1 185.24 122.71)" class="st2 st3 st4">LEAKERS</text>
<text transform="matrix(1 0 0 1 162.62 132.05)" class="st2 st3 st5">SOUNDCLOUD</text>
<text transform="matrix(1 0 0 1 165.52 134.95)" class="st2 st3 st5">RAPPERS</text>
<text transform="matrix(1 0 0 1 218.82 114.66)" class="st2 st3 st5">ANTI-WORKERS</text>
<text transform="matrix(1 0 0 1 234.47 59.77)" class="st2 st3 st4">ANARCHISTS</text>
<text transform="matrix(1 0 0 1 235.03 65.11)" class="st2 st3 st4">DO-OCRACISTS</text>
<text transform="matrix(1 0 0 1 239.24 108.72)" class="st2 st3 st5">LOCA</text>
<text transform="matrix(1 0 0 1 246.05 108.72)" class="st2 st3 st5">L</text>
<text transform="matrix(1 0 0 1 247.37 108.72)" class="st2 st3 st5"> HEROES</text>
<text transform="matrix(1 0 0 1 199.73 81.09)" class="st2 st3 st5">STUDENTS</text>
<text transform="matrix(1 0 0 1 211.17 105.45)" class="st2 st3 st6">FUNEMPLOYED</text>
<text transform="matrix(1 0 0 1 185.57 114.2)" class="st2 st3 st5">INFLUENCERS</text>
<text transform="matrix(1 0 0 1 146.92 39.54)" class="st2 st3 st5">KINKSTERS</text>
<text transform="matrix(1 0 0 1 109.1 48.08)" class="st2 st3 st5">BE</text>
<text transform="matrix(1 0 0 1 112.44 48.08)" class="st2 st3 st5">A</text>
<text transform="matrix(1 0 0 1 113.93 48.08)" class="st2 st3 st5">TMAKERS</text>
<text transform="matrix(1 0 0 1 66.95 52.3)" class="st2 st3 st6">MASTERING</text>
<text transform="matrix(1 0 0 1 67.49 56.16)" class="st2 st3 st6">MAGICIANS</text>
<text transform="matrix(1 0 0 1 135.2 92.29)" class="st2 st3 st6">DIGI-CRE</text>
<text transform="matrix(1 0 0 1 150.32 92.29)" class="st2 st3 st6">A</text>
<text transform="matrix(1 0 0 1 152.31 92.29)" class="st2 st3 st6">T</text>
<text transform="matrix(1 0 0 1 154.3 92.29)" class="st2 st3 st6">ORS</text>
<text transform="matrix(1 0 0 1 102.89 94.11)" class="st2 st3 st6">IMPROVISERS</text>
<text transform="matrix(1 0 0 1 160.08 99.46)" class="st2 st3 st6">COMPUTER</text>
<text transform="matrix(1 0 0 1 162.56 103.32)" class="st2 st3 st6">A</text>
<text transform="matrix(1 0 0 1 164.79 103.32)" class="st2 st3 st6">R</text>
<text transform="matrix(1 0 0 1 167.13 103.32)" class="st2 st3 st6">TISTS</text>
<text transform="matrix(1 0 0 1 166.76 59.55)" class="st2 st3 st7">ALGOR</text>
<text transform="matrix(1 0 0 1 181.34 59.55)" class="st2 st3 st7">A</text>
<text transform="matrix(1 0 0 1 183.83 59.55)" class="st2 st3 st7">VERS</text>
<text transform="matrix(1 0 0 1 150.8 46.68)" class="st2 st3 st6">P</text>
<text transform="matrix(1 0 0 1 152.79 46.68)" class="st2 st3 st6">A</text>
<text transform="matrix(1 0 0 1 155.01 46.68)" class="st2 st3 st6">R</text>
<text transform="matrix(1 0 0 1 157.36 46.68)" class="st2 st3 st6">TYGOERS</text>
<text transform="matrix(1 0 0 1 195.37 68.45)" class="st2 st3 st7">CODERS</text>
<text transform="matrix(1 0 0 1 191.79 87.52)" class="st2 st3 st7">NERDS</text>
<text transform="matrix(1 0 0 1 176.19 107.06)" class="st2 st3 st6">DESIGNERS</text>
<text transform="matrix(1 0 0 1 209.27 89.32)" class="st2 st3 st4">INTROVE</text>
<text transform="matrix(1 0 0 1 216.7 89.32)" class="st2 st3 st4">R</text>
<text transform="matrix(1 0 0 1 217.88 89.32)" class="st2 st3 st4">TS</text>
<text transform="matrix(1 0 0 1 57.07 82.67)" class="st2 st3 st4">JOURNALUSTS</text>
<text transform="matrix(1 0 0 1 60.92 90.37)" class="st2 st3 st4">WRITERS</text>
<text transform="matrix(1 0 0 1 49.77 45.06)" class="st2 st3 st4">SHOWER</text>
<text transform="matrix(1 0 0 1 47.63 46.99)" class="st2 st3 st4">PERFORMERS</text>
<text transform="matrix(1 0 0 1 213.07 78.02)" class="st2 st3 st7">HACKERS</text>
<text transform="matrix(1 0 0 1 226.48 66.23)" class="st2 st3 st6">OSS</text>
<text transform="matrix(1 0 0 1 217.8 70.09)" class="st2 st3 st6">PROGAMMERS</text>
<text transform="matrix(1 0 0 1 204.11 94.18)" class="st2 st3 st6">LURKERS</text>
<text transform="matrix(1 0 0 1 259.22 71.86)" class="st2 st3 st8">BIG</text>
<text transform="matrix(1 0 0 1 290.77 78.73)" class="st2 st3 st8">SQUAD</text>
<text transform="matrix(1 0 0 1 322.86 89.8)" class="st2 st3 st8">ENERGY!</text>
<text transform="matrix(1 0 0 1 226.72 83.77)" class="st2 st3 st6">SPOTIFUCKERS</text>
<text transform="matrix(1 0 0 1 164.47 110.91)" class="st2 st3 st5">3D</text>
<text transform="matrix(1 0 0 1 167.68 110.91)" class="st2 st3 st5"> </text>
<text transform="matrix(1 0 0 1 168.27 110.91)" class="st2 st3 st5">A</text>
<text transform="matrix(1 0 0 1 169.94 110.91)" class="st2 st3 st5">R</text>
<text transform="matrix(1 0 0 1 171.7 110.91)" class="st2 st3 st5">TISTS</text>
<text transform="matrix(1 0 0 1 82.56 100.11)" class="st2 st3 st5">VI</text>
<text transform="matrix(1 0 0 1 84.96 100.11)" class="st2 st3 st5">R</text>
<text transform="matrix(1 0 0 1 86.72 100.11)" class="st2 st3 st5">TUOSI</text>
<text transform="matrix(1 0 0 1 233.12 93.21)" class="st2 st3 st6">MEMELORDS</text>
<text transform="matrix(1 0 0 1 231.13 100.69)" class="st2 st3 st6">INACTIVISTS</text>
<text transform="matrix(1 0 0 1 194.3 73.72)" class="st2 st3 st6">AI</text>
<text transform="matrix(1 0 0 1 183.21 77.58)" class="st2 st3 st6">RESEARCHERS</text>
<text transform="matrix(1 0 0 1 142.35 60.61)" class="st2 st3 st6">DANCERS</text>
<text transform="matrix(1 0 0 1 139.17 83)" class="st2 st3 st6">A/V </text>
<text transform="matrix(1 0 0 1 130.62 86.86)" class="st2 st3 st6">PERFORMERS</text>
<text transform="matrix(1 0 0 1 111.6 106.57)" class="st2 st3 st5">LIVE</text>
<text transform="matrix(1 0 0 1 108.15 109.47)" class="st2 st3 st5">P</text>
<text transform="matrix(1 0 0 1 109.64 109.47)" class="st2 st3 st5">AINTERS</text>
<text transform="matrix(1 0 0 1 70.6 67.7)" class="st2 st3 st7">SINGERS</text>
<text transform="matrix(1 0 0 1 128.42 65.72)" class="st2 st3 st9">DJS</text>
<text transform="matrix(1 0 0 1 55.79 33.82)" class="st2 st3 st6">KARAOKE</text>
<text transform="matrix(1 0 0 1 55.88 37.68)" class="st2 st3 st6">LEGENDS</text>
<text transform="matrix(1 0 0 1 53.29 79.12)" class="st2 st3 st6">PODCASTERS</text>
<text transform="matrix(1 0 0 1 63.86 61.53)" class="st2 st3 st6">MCS</text>
<text transform="matrix(1 0 0 1 44.65 71.91)" class="st2 st3 st6">RADIO HOSTS</text>
<text transform="matrix(1 0 0 1 96.11 80.76)" class="st2 st3 st7">BANDS</text>
<text transform="matrix(1 0 0 1 127.15 103.05)" class="st2 st3 st6">VIDEOMAKERS</text>
<text transform="matrix(1 0 0 1 74.24 87.88)" class="st2 st3 st6">SONGWRITERS</text>
<text transform="matrix(1 0 0 1 95.66 60.01)" class="st2 st3 st7">AUDIO </text>
<text transform="matrix(1 0 0 1 90.59 64.84)" class="st2 st3 st7">ENGINEERS</text>
<text transform="matrix(1 0 0 1 74.06 44.69)" class="st2 st3 st6">SOUND PEEPS</text>
<text transform="matrix(1 0 0 1 79.24 74.89)" class="st2 st3 st6">MUSICIANS</text>
<text transform="matrix(1 0 0 1 211.33 56.37)" class="st2 st3 st6">BLOCKCHAIN</text>
<text transform="matrix(1 0 0 1 216.14 60.23)" class="st2 st3 st6">BABIES</text>
<text transform="matrix(1 0 0 1 121.42 118.3)" class="st2 st3 st7">DI</text>
<text transform="matrix(1 0 0 1 125.64 118.3)" class="st2 st3 st7">Y</text>
<text transform="matrix(1 0 0 1 128.35 118.3)" class="st2 st3 st7"> LABELS</text>
<text transform="matrix(1 0 0 1 130.04 129.26)" class="st2 st3 st6">BANDCAM</text>
<text transform="matrix(1 0 0 1 146.69 129.26)" class="st2 st3 st6">P</text>
<text transform="matrix(1 0 0 1 148.86 129.26)" class="st2 st3 st6"> ON</text>
<text transform="matrix(1 0 0 1 154.82 129.26)" class="st2 st3 st6">L</text>
<text transform="matrix(1 0 0 1 156.46 129.26)" class="st2 st3 st6">Y</text>
<text transform="matrix(1 0 0 1 146.67 65.74)" class="st2 st3 st6">P</text>
<text transform="matrix(1 0 0 1 148.66 65.74)" class="st2 st3 st6">A</text>
<text transform="matrix(1 0 0 1 150.88 65.74)" class="st2 st3 st6">R</text>
<text transform="matrix(1 0 0 1 153.23 65.74)" class="st2 st3 st6">T</text>
<text transform="matrix(1 0 0 1 155.28 65.74)" class="st2 st3 st6">Y</text>
<text transform="matrix(1 0 0 1 145.87 69.6)" class="st2 st3 st6">CREWS</text>
<text transform="matrix(1 0 0 1 152.37 75.16)" class="st2 st3 st6">PROMOTERS</text>
<text transform="matrix(1 0 0 1 113.63 74.83)" class="st2 st3 st7">PRODUCERS</text>
<line class="st0" x1="0" y1="0.1" x2="0.2" y2="0.1"/>
<line class="st0" x1="0.3" y1="172.3" x2="0.5" y2="172.3"/>
<line class="st0" x1="392" y1="0.7" x2="392.2" y2="0.7"/>
<line class="st0" x1="392" y1="172.6" x2="392.2" y2="172.6"/>
</svg>
